<svg id="Vrstva_1" xmlns="http://www.w3.org/2000/svg" viewBox="0 0 226.1 41"><style>.st0{fill-rule:evenodd;clip-rule:evenodd;fill:#2241b9}</style><path class="st0" d="M225.8 18.3C98.9 47.6 75.4 30.5 88.1 18.7 111.1-2.8 83.7-7.1 0 13v1.6C78.4-1.6 92 .1 65.2 23c-13.4 11.4 16.5 34.3 160.6-3.5v-1.2z"/><path class="st0" d="M150.9 25H141l2-22.4h6.5l-1.4 15.9 10.6-15.9h7.1L150.9 25zm14.2 0h-9.9l.3-3.7L163 10l-.8 8.6 10.6-15.9h7.1L165.1 25zM141 2.6L139 25h-6.5l.4-4.6h-5.8l4.3-6.5h2l.7-7.6L121.7 25h-7.1l14.9-22.4H141z"/></svg>