<?xml version="1.0" encoding="utf-8"?>
<!-- Generator: Adobe Illustrator 22.0.1, SVG Export Plug-In . SVG Version: 6.00 Build 0)  -->
<svg version="1.1" id="Vrstva_1" xmlns="http://www.w3.org/2000/svg" xmlns:xlink="http://www.w3.org/1999/xlink" x="0px" y="0px"
	 viewBox="0 0 226.1 41" style="enable-background:new 0 0 226.1 41;" xml:space="preserve">
<style type="text/css">
	.st0{fill-rule:evenodd;clip-rule:evenodd;fill:#FFFFFF;}
</style>
<path class="st0" d="M225.8,18.3C98.9,47.6,75.4,30.5,88.1,18.7C111.1-2.8,83.7-7.1,0,13v1.6C78.4-1.6,92,0.1,65.2,23
	c-13.4,11.4,16.5,34.3,160.6-3.5V18.3L225.8,18.3z"/>
<path class="st0" d="M150.9,25c-3.3,0-6.6,0-9.9,0l2-22.4h6.5l-1.4,15.9l10.6-15.9h7.1L150.9,25L150.9,25z M165.1,25
	c-3.3,0-6.6,0-9.9,0l0.3-3.7l7.5-11.3l-0.8,8.6l10.6-15.9h7.1L165.1,25L165.1,25z M141,2.6L139,25h-6.5l0.4-4.6h-5.8l4.3-6.5h2
	l0.7-7.6L121.7,25h-7.1l14.9-22.4C133.3,2.6,137.1,2.6,141,2.6L141,2.6z"/>
</svg>
